<?xml version="1.0" encoding="UTF-8"?>
<svg id="Layer_1" data-name="Layer 1" xmlns="http://www.w3.org/2000/svg" viewBox="0 0 832.12 453.94" role="img" aria-labelledby="vetoLogo vetoDesc">
  <title id="vetoLogo">VETO Logo</title>
  <desc id="vetoDesc">Logo do VETO - Plataforma de Acompanhamento Legislativo de Portugal</desc>
  <defs>
    <style>
      .cls-1 {
        fill: #fff;
      }
    </style>
  </defs>
  <g id="nG2nfi.tif">
    <g>
      <path class="cls-1" d="M412.16.41c17.76-3.68,27.61,18.45,13.75,28.73-14.43,10.71-31.95-6.65-22.89-21.89,1.48-2.49,6.29-6.25,9.14-6.84Z"/>
      <path class="cls-1" d="M326.24,9.41c21.93-4.05,26.3,28.29,6.53,31.49-21.97,3.56-25.56-27.98-6.53-31.49Z"/>
      <path class="cls-1" d="M498.07,9.4c26.23-5.44,26.29,33.21,3.91,31.67-18.36-1.26-19.52-28.43-3.91-31.67Z"/>
      <path class="cls-1" d="M244.32,37.37c24.93-5.18,27.67,33.62,1.75,30.76-16.56-1.83-17.13-27.57-1.75-30.76Z"/>
      <path class="cls-1" d="M578.98,37.35c17.89-4.07,27.73,18.51,13.21,28.19s-31.23-8.65-20.76-22.76c1.41-1.9,5.34-4.93,7.55-5.43Z"/>
      <path class="cls-1" d="M173.41,80.33c20.59-3.27,24.87,28.54,4.64,30.67-20.15,2.12-23.52-27.68-4.64-30.67Z"/>
      <path class="cls-1" d="M416.09,51.5c21.07-.42,20.76,34.37-2.92,30.35-17.13-2.91-15-29.99,2.92-30.35Z"/>
      <path class="cls-1" d="M653.95,80.32c20.69-3,24.23,29.95,2.69,30.78-19.21.74-20.44-28.21-2.69-30.78Z"/>
      <path class="cls-1" d="M572.93,86.44c13.8,13.02-4.76,36.35-20.14,22.64-14.44-12.87,6-35.97,20.14-22.64Z"/>
      <path class="cls-1" d="M264.28,83.31c24.21-5.5,24.8,31.66,3.08,29.54-17.11-1.67-17.46-26.27-3.08-29.54Z"/>
      <path class="cls-1" d="M336.24,60.35c23.07-4.27,25.75,31.78.74,28.76-15.1-1.82-15.81-25.97-.74-28.76Z"/>
      <path class="cls-1" d="M759.84,201.23c19.32-1.09,20.75,28.76,1.71,29.77s-21.35-28.66-1.71-29.77Z"/>
      <path class="cls-1" d="M81.42,205.32c12.57,12.54-3.41,33.18-18.57,23.07-18.2-12.13,4.19-37.42,18.57-23.07Z"/>
      <path class="cls-1" d="M114.48,136.26c19.62-2.83,22.81,27.03,4.67,29.69-19.31,2.84-23.84-26.93-4.67-29.69Z"/>
      <path class="cls-1" d="M487.07,60.33c23.53-5.35,27.23,30.9,2.74,28.81-9.42-.8-14.53-11.07-11.67-19.76.97-2.94,5.83-8.34,8.93-9.05Z"/>
      <path class="cls-1" d="M713.88,136.29c23.26-1.38,19.26,34.79-2.56,29.04-16.19-4.27-13.22-28.1,2.56-29.04Z"/>
      <path class="cls-1" d="M790.81,273.14c21.6-3.41,22.53,28.45,3.5,29.49s-20.91-26.74-3.5-29.49Z"/>
      <path class="cls-1" d="M35.53,273.14c21.31-4.34,25.54,29.41,2.75,28.81-18.22-.48-17.3-25.85-2.75-28.81Z"/>
      <path class="cls-1" d="M626.01,120.27c19.34-1.53,20.48,29.58.71,29.58-18.1,0-18.76-28.15-.71-29.58Z"/>
      <path class="cls-1" d="M194.98,145.7c-15.22-15.17,11.52-36.86,22.49-17.99,8.75,15.04-10.82,29.63-22.49,17.99Z"/>
      <path class="cls-1" d="M16.55,348.07c20.43-3.71,23.18,27.07,4.64,28.69-19.04,1.67-21.61-25.61-4.64-28.69Z"/>
      <path class="cls-1" d="M822.69,352.17c12.94,12.94-6.26,33.47-19.69,21.19-14-12.8,5.87-35.01,19.69-21.19Z"/>
      <path class="cls-1" d="M109.51,226.17c19.12-1.51,20.66,28.21,1.68,28.81-17.89.57-19.86-27.37-1.68-28.81Z"/>
      <path class="cls-1" d="M347.25,107.29c20.99-3.03,22.88,31.48-1.2,27.69-14.16-2.23-14.13-25.48,1.2-27.69Z"/>
      <path class="cls-1" d="M426.08,124.72c-5.82,5.76-16.67,5.56-21.65-1.15-9.61-12.96,5.69-28.76,19.32-20.32,7.05,4.37,8.05,15.8,2.33,21.47Z"/>
      <path class="cls-1" d="M480.14,107.27c20.24-2.75,22.46,30.37-.3,27.8-15.7-1.77-15.34-25.68.3-27.8Z"/>
      <path class="cls-1" d="M689.82,173.35c14.29,14.43-10.34,35.9-21.47,17.97-9.6-15.46,10.89-28.66,21.47-17.97Z"/>
      <path class="cls-1" d="M148.42,170.25c24.12-4.47,22.27,32.42.2,27.3-14.2-3.29-13.02-24.92-.2-27.3Z"/>
      <path class="cls-1" d="M297.2,131.39c14.95,14.94-10.89,35.08-21.47,17.97-9.29-15.03,10.58-28.85,21.47-17.97Z"/>
      <path class="cls-1" d="M553.95,151.69c-11.44,11.44-30.68-3.08-21.47-17.97,10.85-17.54,35.71,3.73,21.47,17.97Z"/>
      <path class="cls-1" d="M718.89,226.17c18.14-2.62,22.33,24.51,5.51,27.52-20.03,3.58-22.83-25.02-5.51-27.52Z"/>
      <path class="cls-1" d="M79.52,290.11c18.82-2.72,21.79,25.18,4.67,27.7-18.65,2.74-22.6-25.11-4.67-27.7Z"/>
      <path class="cls-1" d="M230.38,159.21c17.32-1.95,21.15,25.16,4.67,27.72-20.76,3.22-21.25-25.85-4.67-27.72Z"/>
      <path class="cls-1" d="M817.79,425.01c17.27-.93,19.46,25.2,3.68,27.66-20.3,3.16-22.07-26.67-3.68-27.66Z"/>
      <path class="cls-1" d="M12.61,424.97c16.51-1.48,20.08,25.45,3.62,27.67-20.63,2.78-21.33-26.09-3.62-27.67Z"/>
      <path class="cls-1" d="M590.6,183.66c-12.93-13.05,6.39-32.12,19.15-20.65,13.75,12.36-6.74,33.18-19.15,20.65Z"/>
      <path class="cls-1" d="M748.87,290.09c18.1-2.48,20.75,26.84,2.69,27.82-18.3.99-19.56-25.5-2.69-27.82Z"/>
      <path class="cls-1" d="M769.79,425.97c22.8-5.18,23.44,25.87,5.75,26.8-16.77.89-18.93-23.81-5.75-26.8Z"/>
      <path class="cls-1" d="M643.94,202.2c20.25-4.11,22.86,30.32-.17,26.68-14.3-2.26-13.42-23.92.17-26.68Z"/>
      <path class="cls-1" d="M182.41,202.19c20.29-3.36,22.22,30.17-.19,26.7-14.13-2.19-14.17-24.32.19-26.7Z"/>
      <path class="cls-1" d="M56.53,425.01c16.66-.9,18.53,23.57,5.53,26.52-22.28,5.05-23.68-25.54-5.53-26.52Z"/>
      <path class="cls-1" d="M678.88,252.14c22.08-5.01,23.42,24.94,5.56,26.54-16.05,1.44-18.98-23.5-5.56-26.54Z"/>
      <path class="cls-1" d="M758.43,379.47c-11.86-11.74,6.51-31.5,19.16-19.66s-5.43,33.25-19.16,19.66Z"/>
      <path class="cls-1" d="M61.53,356.05c19.42-2.83,21.01,28.25.77,26.78-15.38-1.11-15.58-24.63-.77-26.78Z"/>
      <path class="cls-1" d="M145.42,252.16c15.63-3.21,22.45,17.01,9.61,24.59-18.21,10.76-27.78-20.86-9.61-24.59Z"/>
      <path class="cls-1" d="M469.11,153.27c20.18-3.68,22.37,26.28,2.77,25.81-15.88-.38-16.57-23.3-2.77-25.81Z"/>
      <path class="cls-1" d="M349.83,156.36c12.64-12.27,31.29,7.84,18.15,19.65-12.81,11.52-30.36-7.8-18.15-19.65Z"/>
      <path class="cls-1" d="M414.2,147.23c17.21-2.35,20.22,26.23,1.73,26.23-17.01,0-17.88-24.02-1.73-26.23Z"/>
      <path class="cls-1" d="M303.31,170.21c16.75-2.29,19.68,23.39,4.66,25.71-19.84,3.07-21.25-23.45-4.66-25.71Z"/>
      <path class="cls-1" d="M118.43,308.09c22.66-5.19,21.55,28.37,2.05,25.54-14.25-2.06-13.62-22.89-2.05-25.54Z"/>
      <path class="cls-1" d="M525.09,170.21c15.92-2.25,18.87,22.51,5.52,25.57-19.69,4.5-23.71-22.99-5.52-25.57Z"/>
      <path class="cls-1" d="M705.85,308.09c21.43-4.93,22.31,25.94,3.95,25.41-15.26-.44-16.31-22.57-3.95-25.41Z"/>
      <path class="cls-1" d="M98.5,425.95c16.89-1.93,19.3,23.73,3.63,25.7-18.76,2.36-19.28-23.91-3.63-25.7Z"/>
      <path class="cls-1" d="M720.87,367.06c9.28-2.36,17.5,2.38,17.71,12.23.35,17-26.5,16.86-25.52-1.01.25-4.44,3.28-10.06,7.81-11.22Z"/>
      <path class="cls-1" d="M104.5,365.01c15.73-1.76,19.72,23.67,3.63,25.7-19.13,2.41-19.32-23.94-3.63-25.7Z"/>
      <path class="cls-1" d="M252.29,199.2c20.62-4.75,23.53,26.27,2.75,24.81-14.45-1.01-14.46-22.12-2.75-24.81Z"/>
      <path class="cls-1" d="M570.98,199.2c21.09-4.82,22.62,25.89,2.76,24.83-14.28-.76-14.6-22.13-2.76-24.83Z"/>
      <path class="cls-1" d="M213.36,234.18c17.84-3.67,21.52,24.53,3.51,25.5-16.13.88-17.68-22.59-3.51-25.5Z"/>
      <path class="cls-1" d="M193.31,298.55c-11.7,12.24-30.51-7.12-18.17-18.67s29.3,7.02,18.17,18.67Z"/>
      <path class="cls-1" d="M730.89,426.96c18.36-2.54,18.62,29.06-.81,25.36-13.75-2.62-13.04-23.44.81-25.36Z"/>
      <path class="cls-1" d="M644.94,277.13c16.81-3.41,20.9,21.55,6.53,24.52-18.61,3.84-21.57-21.47-6.53-24.52Z"/>
      <path class="cls-1" d="M614,234.15c12.92-1.78,19.46,17.84,6.94,23.99-17.76,8.73-26.05-21.35-6.94-23.99Z"/>
      <path class="cls-1" d="M136.41,427.97c20.61-4.68,22.72,25.21,2.75,23.82-13.81-.96-13.08-21.47-2.75-23.82Z"/>
      <path class="cls-1" d="M694.82,379.15c12.04,11.51-7.96,31.11-18.65,16.15-9.14-12.79,8.13-26.21,18.65-16.15Z"/>
      <path class="cls-1" d="M461.13,197.21c17.74-3.04,21.26,23.04,3.77,23.81-16.21.71-16.59-21.61-3.77-23.81Z"/>
      <path class="cls-1" d="M506.07,212.21c20.55-4.23,20.48,26.54.84,23.68-12.1-1.76-12.79-21.22-.84-23.68Z"/>
      <path class="cls-1" d="M156.39,325.07c20.54-4.67,21.82,24.34,3.78,23.85-13.65-.37-15.04-21.29-3.78-23.85Z"/>
      <path class="cls-1" d="M683.5,431.09c11.66-11.13,28.12,7.56,16.7,18.19-12.73,11.86-27.61-7.79-16.7-18.19Z"/>
      <path class="cls-1" d="M365.21,197.21c13.6-2.8,20.86,15.43,9.21,22.21-17.23,10.02-26.83-18.59-9.21-22.21Z"/>
      <path class="cls-1" d="M319.25,212.2c14.37-2.99,21.06,13.97,9.76,21.74-16.03,11.03-27.27-18.1-9.76-21.74Z"/>
      <path class="cls-1" d="M668.92,325.09c17.49-3.01,18.81,20.71,6.54,23.53-17.88,4.12-21.67-20.93-6.54-23.53Z"/>
      <path class="cls-1" d="M145.46,375c12.64-1.43,19.35,17.37,6.23,23.3-17.57,7.95-24.04-21.29-6.23-23.3Z"/>
      <path class="cls-1" d="M425.11,212.66c-9.41,10.6-28.9-3.03-18.69-16.2,9.95-12.84,29.52,4,18.69,16.2Z"/>
      <path class="cls-1" d="M290.21,239.28c10.41,10.89-5.49,27.77-16.69,17.19-12.4-11.7,5.65-28.75,16.69-17.19Z"/>
      <path class="cls-1" d="M218.38,301.11c15.59-.85,17.32,26.68-2.2,23.68-13.15-2.02-12.3-22.89,2.2-23.68Z"/>
      <path class="cls-1" d="M243.31,266.12c18.51-4.18,20.52,25.49,1.91,23.72-12.95-1.23-13.8-21.03-1.91-23.72Z"/>
      <path class="cls-1" d="M542.64,238.28c12.9-12.32,28.28,9.99,15.15,18.65s-25.36-8.9-15.15-18.65Z"/>
      <path class="cls-1" d="M605.56,304.2c13.37-11.1,27.9,10.86,14.62,19.11s-25.67-9.94-14.62-19.11Z"/>
      <path class="cls-1" d="M581.01,267.17c19.78-5.08,22,23.33,3.74,22.81-13.05-.37-14.89-19.95-3.74-22.81Z"/>
      <path class="cls-1" d="M196.41,342.04c12.15-1.67,18.84,15.75,6.92,21.98-16.89,8.83-24.01-19.62-6.92-21.98Z"/>
      <path class="cls-1" d="M632.96,342.05c11.05-1.03,17.44,15.84,6.17,22.19-16.52,9.3-24.81-20.44-6.17-22.19Z"/>
      <path class="cls-1" d="M648.91,429.97c17.27-3.98,19.51,23.32,2.83,22.8-13.46-.42-13.89-20.26-2.83-22.8Z"/>
      <path class="cls-1" d="M489.1,252.18c17.34-4.48,20.63,20.01,6.27,22.33-15.25,2.47-17.3-19.48-6.27-22.33Z"/>
      <path class="cls-1" d="M184.42,385.04c13.97-.75,17.13,22.48.73,22.82-15.22.32-14.61-22.07-.73-22.82Z"/>
      <path class="cls-1" d="M335.21,252.15c18.88-4.32,20.02,22.26,3.79,22.25-13.56,0-14.51-19.8-3.79-22.25Z"/>
      <path class="cls-1" d="M645.97,384.99c14.41-1.62,16.63,20.69,3.67,22.74-16.09,2.54-18.69-21.05-3.67-22.74Z"/>
      <path class="cls-1" d="M454.13,239.15c13.83-1.29,17.34,21.76,1.74,22.83-15.27,1.05-15.84-21.51-1.74-22.83Z"/>
      <path class="cls-1" d="M373.18,240.16c17.3-3.95,18.86,18.59,7.54,21.51-16.93,4.37-19.62-18.76-7.54-21.51Z"/>
      <path class="cls-1" d="M188.34,432.07c9.15,8.09-.47,26.34-13.63,18.12-13.69-8.54,2.1-28.31,13.63-18.12Z"/>
      <path class="cls-1" d="M413.16,236.17c16.19-3.32,19.71,22.82,1.74,21.82-13.01-.72-13.63-19.38-1.74-21.82Z"/>
      <path class="cls-1" d="M302.29,272.1c15.55-2.93,18.25,22.15,2.66,22.73-13.73.51-15.38-20.34-2.66-22.73Z"/>
      <path class="cls-1" d="M526.09,272.09c15.09-1.82,16.96,22.88.71,22.64-13.82-.21-13.18-21.13-.71-22.64Z"/>
      <path class="cls-1" d="M555.79,297.4c14.69,0,15.12,22.63-.02,22.51-13.42-.11-14.4-22.5.02-22.51Z"/>
      <path class="cls-1" d="M579,327.08c15.12-1.35,16.02,25.18-2,21.52-11.1-2.26-10.41-20.41,2-21.52Z"/>
      <path class="cls-1" d="M267.91,300.22c8.86-8.65,24.59,3.7,16.19,14.69-9.28,12.14-27.19-3.95-16.19-14.69Z"/>
      <path class="cls-1" d="M243.9,346.53c-9.89-8.73,2.07-25.95,14.2-16.69,11.15,8.51-3.35,26.27-14.2,16.69Z"/>
      <path class="cls-1" d="M594.99,360.05c12.2-2.48,18.52,13.55,8.61,19.6-15.16,9.26-23.53-16.57-8.61-19.6Z"/>
      <path class="cls-1" d="M231.34,360.05c15.71-3.19,18.61,21.24,2.76,21.24-13.37,0-13.96-18.97-2.76-21.24Z"/>
      <path class="cls-1" d="M222.38,394.98c12.44-1.41,15.58,18.05,4.52,20.58-16.05,3.67-18.16-19.04-4.52-20.58Z"/>
      <path class="cls-1" d="M217.38,431.94c13.82-2.41,17,19.2,3.64,20.77-14.09,1.65-15.58-18.69-3.64-20.77Z"/>
      <path class="cls-1" d="M607.01,394.97c12.32-1.51,15.66,18.03,4.52,20.58-16.51,3.78-17.34-19.01-4.52-20.58Z"/>
      <path class="cls-1" d="M605.59,435.1c9.97-9.97,24.69,6.5,14.17,15.67-9.52,8.3-23.39-6.45-14.17-15.67Z"/>
      <path class="cls-1" d="M443.15,283.15c14.81-3.8,18.93,14.38,7.82,18.8-14.04,5.58-19.34-15.84-7.82-18.8Z"/>
      <path class="cls-1" d="M384.19,282.12c13.89-1.24,15.29,19.99,1.61,20.41-13.52.41-14.23-19.28-1.61-20.41Z"/>
      <path class="cls-1" d="M363.17,308.57c-8.21,9.3-23.33-1.61-16.7-12.21,7.67-12.25,26.14,1.52,16.7,12.21Z"/>
      <path class="cls-1" d="M414.18,279.12c14.21-2.33,15.91,17.18,5.53,19.55-15.71,3.59-18.04-17.5-5.53-19.55Z"/>
      <path class="cls-1" d="M474.08,292.11c18.55-4.23,17.23,25.08-.44,18.99-8.74-3.01-7.98-17.07.44-18.99Z"/>
      <path class="cls-1" d="M511.99,324.52c-9.67,9.56-24.09-7.19-13.16-15.66,9.96-7.71,22.05,6.86,13.16,15.66Z"/>
      <path class="cls-1" d="M319.87,324.51c-8.68-8.64,3.62-23.9,13.7-15.2,10.53,9.08-4.42,24.43-13.7,15.2Z"/>
      <path class="cls-1" d="M282.32,351.02c13.29-2.3,17.19,17.88,3.66,19.75s-14.9-17.8-3.66-19.75Z"/>
      <path class="cls-1" d="M300.25,327.07c15.74-3.6,17.41,18.01,4.52,19.58-12.17,1.49-15.32-17.11-4.52-19.58Z"/>
      <path class="cls-1" d="M545.05,351.05c13.03-2.51,16.28,16.89,4.54,19.56-14.12,3.21-16.9-17.18-4.54-19.56Z"/>
      <path class="cls-1" d="M526.06,327.07c14.22-2.73,16.58,18.21,3.66,19.74-12.29,1.46-15.94-17.39-3.66-19.74Z"/>
      <path class="cls-1" d="M269.31,377.02c10.9-.86,14.49,14.96,4.83,18.84-14.37,5.77-19.03-17.71-4.83-18.84Z"/>
      <path class="cls-1" d="M557,378.03c15.26-3.65,17.78,16.19,5.54,18.55-13.12,2.53-14.51-16.4-5.54-18.55Z"/>
      <path class="cls-1" d="M566.99,406c17.41-3.95,15.33,21.1,1.52,18.12-10-2.16-9.97-16.2-1.52-18.12Z"/>
      <path class="cls-1" d="M254.9,421.46c-8.5-9.13,5.55-22.25,13.71-13.21s-5.59,21.93-13.71,13.21Z"/>
      <path class="cls-1" d="M580.95,437.07c8.51,9.31-5.62,22.16-13.7,13.2-8.8-9.75,6.17-21.44,13.7-13.2Z"/>
      <path class="cls-1" d="M258.1,434.23c11.2.29,12.06,18.61-.02,18.6-12.52-.01-12.78-18.93.02-18.6Z"/>
      <path class="cls-1" d="M390.17,324.07c15.86-3.57,14.73,21.26-.77,16.32-7.02-2.24-6.73-14.63.77-16.32Z"/>
      <path class="cls-1" d="M423.12,335.56c-5.8,6.88-20.59-.72-14.14-10.66,6.82-10.5,22.28,1.02,14.14,10.66Z"/>
      <path class="cls-1" d="M317.01,375.29c10.79-.29,11.78,17.12,1,17.57-11.55.48-13.09-17.24-1-17.57Z"/>
      <path class="cls-1" d="M511.04,376.02c12.98-3.84,16.07,13.23,6.34,16.33-12.26,3.9-15.29-13.68-6.34-16.33Z"/>
      <path class="cls-1" d="M329.24,357.03c11.25-2.46,15.43,13.48,6.32,16.34-14.21,4.46-15.72-14.28-6.32-16.34Z"/>
      <path class="cls-1" d="M433.73,338.53c-7.33-8.02,3.7-20.25,12.19-12.7s-4.34,21.28-12.19,12.7Z"/>
      <path class="cls-1" d="M368.19,331.06c13.01-2.92,14.7,14.34,4.55,16.58-11.97,2.64-13.77-14.51-4.55-16.58Z"/>
      <path class="cls-1" d="M349.23,342.05c11.57-1.13,12.43,17.63.76,17.63-10.26,0-11.61-16.57-.76-17.63Z"/>
      <path class="cls-1" d="M482.02,342.13c11.37-.59,11.68,17.08.76,17.68-11.21.62-11.77-17.11-.76-17.68Z"/>
      <path class="cls-1" d="M500.02,357.16c11.11-.17,11.15,18.17-1.04,17.33-10.07-.69-10.46-17.16,1.04-17.33Z"/>
      <path class="cls-1" d="M522.04,396.01c17.85-4.07,12.15,23.48-1.63,15.18-6.05-3.64-5.04-13.66,1.63-15.18Z"/>
      <path class="cls-1" d="M303.26,396c13.31-3,15.29,14.83,4.52,16.6-11.1,1.82-13.12-14.66-4.52-16.6Z"/>
      <path class="cls-1" d="M468.06,333.17c7.44,6.8-2.38,20.71-11.71,12.21-8.63-7.85,3.71-19.53,11.71-12.21Z"/>
      <path class="cls-1" d="M529.03,416.98c13.17-2.96,14.93,14.29,4.31,16.39-10.33,2.04-14.15-14.18-4.31-16.39Z"/>
      <path class="cls-1" d="M297.27,416.97c11.71-2.55,13.74,13.59,4.54,15.59-11.71,2.55-13.74-13.59-4.54-15.59Z"/>
      <path class="cls-1" d="M534.05,437.96c10.05-.99,11.08,14.2,2.72,15.77-12.07,2.27-12.93-14.77-2.72-15.77Z"/>
      <path class="cls-1" d="M295.27,437.95c9.92-1.31,11.63,14.63,2.68,15.76-11.37,1.43-12.74-14.43-2.68-15.76Z"/>
    </g>
  </g>
</svg>